<svg xmlns="http://www.w3.org/2000/svg" width="82.755" height="24.85" viewBox="0 0 82.755 24.85">
  <metadata><?xpacket begin="﻿" id="W5M0MpCehiHzreSzNTczkc9d"?>
<x:xmpmeta xmlns:x="adobe:ns:meta/" x:xmptk="Adobe XMP Core 5.6-c142 79.160924, 2017/07/13-01:06:39        ">
   <rdf:RDF xmlns:rdf="http://www.w3.org/1999/02/22-rdf-syntax-ns#">
      <rdf:Description rdf:about=""/>
   </rdf:RDF>
</x:xmpmeta>
                                                                                                    
                                                                                                    
                                                                                                    
                                                                                                    
                                                                                                    
                                                                                                    
                                                                                                    
                                                                                                    
                                                                                                    
                                                                                                    
                                                                                                    
                                                                                                    
                                                                                                    
                                                                                                    
                                                                                                    
                                                                                                    
                                                                                                    
                                                                                                    
                                                                                                    
                                                                                                    
                           
<?xpacket end="w"?></metadata>
<defs>
    <style>
      .cls-1 {
        fill: #d92a21;
        fill-rule: evenodd;
      }
    </style>
  </defs>
  <path id="_200_" data-name="200+ " class="cls-1" d="M980.36,2258.3v4.15h17.576v-4.15h-10.2c6.052-5.2,9.621-8.77,9.621-13.53,0-5.1-3.841-6.7-9.281-6.7a26.06,26.06,0,0,0-7.479,1.36l0.17,6.29h3.569l0.34-2.89a8.5,8.5,0,0,1,3.162-.61c2.414,0,3.978,1.33,3.978,3.4C991.817,2248.95,987.635,2252.42,980.36,2258.3Zm30.56-20.23c-6.69,0-9.24,4.66-9.24,12.58,0,7.89,2.55,12.24,8.9,12.24,6.4,0,9.12-4.59,9.12-12.75C1019.7,2242.39,1017.66,2238.07,1010.92,2238.07Zm-0.2,4.25c2.62,0,3.43,2.04,3.43,7.99,0,6.12-.91,8.33-3.43,8.33s-3.53-2.21-3.53-8.16C1007.19,2244.36,1008.14,2242.32,1010.72,2242.32Zm22.13-4.25c-6.69,0-9.24,4.66-9.24,12.58,0,7.89,2.55,12.24,8.9,12.24,6.4,0,9.12-4.59,9.12-12.75C1041.63,2242.39,1039.59,2238.07,1032.85,2238.07Zm-0.2,4.25c2.62,0,3.43,2.04,3.43,7.99,0,6.12-.91,8.33-3.43,8.33s-3.53-2.21-3.53-8.16C1029.12,2244.36,1030.07,2242.32,1032.65,2242.32Zm19.14,8.95h-6.86v4.01h6.86v7.17h4.52v-7.17h6.8v-4.01h-6.8v-6.94h-4.52v6.94Z" transform="translate(-980.375 -2238.06)"/>
</svg>
