<svg xmlns="http://www.w3.org/2000/svg" width="104.69" height="24.88" viewBox="0 0 104.69 24.88">
  <metadata><?xpacket begin="﻿" id="W5M0MpCehiHzreSzNTczkc9d"?>
<x:xmpmeta xmlns:x="adobe:ns:meta/" x:xmptk="Adobe XMP Core 5.6-c142 79.160924, 2017/07/13-01:06:39        ">
   <rdf:RDF xmlns:rdf="http://www.w3.org/1999/02/22-rdf-syntax-ns#">
      <rdf:Description rdf:about=""/>
   </rdf:RDF>
</x:xmpmeta>
                                                                                                    
                                                                                                    
                                                                                                    
                                                                                                    
                                                                                                    
                                                                                                    
                                                                                                    
                                                                                                    
                                                                                                    
                                                                                                    
                                                                                                    
                                                                                                    
                                                                                                    
                                                                                                    
                                                                                                    
                                                                                                    
                                                                                                    
                                                                                                    
                                                                                                    
                                                                                                    
                           
<?xpacket end="w"?></metadata>
<defs>
    <style>
      .cls-1 {
        fill: #d92a21;
        fill-rule: evenodd;
      }
    </style>
  </defs>
  <path id="_3000_" data-name="3000+" class="cls-1" d="M1243.36,2249.91a5.555,5.555,0,0,0,4.15-5.72c0-4.52-3.84-6.15-8.26-6.15a24.559,24.559,0,0,0-7.99,1.46l0.17,5.95H1235l0.34-2.72a10.618,10.618,0,0,1,3.16-.51c1.97,0,3.84.72,3.84,2.82,0,2.21-1.63,3.3-4.35,3.3h-2.82v3.57h2.65c3.13,0,4.83,1.05,4.83,3.33,0,2.25-2.01,3.33-4.35,3.33a15.124,15.124,0,0,1-6.02-1.39l-1.43,3.84a15.773,15.773,0,0,0,7.62,1.87c4.48,0,9.62-2.07,9.62-7.58C1248.09,2252.96,1246.35,2250.69,1243.36,2249.91Zm18.05-11.84c-6.69,0-9.24,4.66-9.24,12.58,0,7.89,2.55,12.24,8.9,12.24,6.4,0,9.12-4.59,9.12-12.75C1270.19,2242.39,1268.15,2238.07,1261.41,2238.07Zm-0.2,4.25c2.62,0,3.43,2.04,3.43,7.99,0,6.12-.91,8.33-3.43,8.33s-3.53-2.21-3.53-8.16C1257.68,2244.36,1258.63,2242.32,1261.21,2242.32Zm22.13-4.25c-6.69,0-9.24,4.66-9.24,12.58,0,7.89,2.55,12.24,8.9,12.24,6.4,0,9.12-4.59,9.12-12.75C1292.12,2242.39,1290.08,2238.07,1283.34,2238.07Zm-0.2,4.25c2.62,0,3.43,2.04,3.43,7.99,0,6.12-.91,8.33-3.43,8.33s-3.53-2.21-3.53-8.16C1279.61,2244.36,1280.56,2242.32,1283.14,2242.32Zm22.13-4.25c-6.69,0-9.24,4.66-9.24,12.58,0,7.89,2.55,12.24,8.9,12.24,6.4,0,9.12-4.59,9.12-12.75C1314.05,2242.39,1312.01,2238.07,1305.27,2238.07Zm-0.2,4.25c2.62,0,3.43,2.04,3.43,7.99,0,6.12-.91,8.33-3.43,8.33s-3.53-2.21-3.53-8.16C1301.54,2244.36,1302.49,2242.32,1305.07,2242.32Zm19.14,8.95h-6.86v4.01h6.86v7.17h4.52v-7.17h6.8v-4.01h-6.8v-6.94h-4.52v6.94Z" transform="translate(-1230.84 -2238.03)"/>
</svg>
