<svg xmlns="http://www.w3.org/2000/svg" width="57.07" height="24.88" viewBox="0 0 57.07 24.88">
  <metadata><?xpacket begin="﻿" id="W5M0MpCehiHzreSzNTczkc9d"?>
<x:xmpmeta xmlns:x="adobe:ns:meta/" x:xmptk="Adobe XMP Core 5.6-c142 79.160924, 2017/07/13-01:06:39        ">
   <rdf:RDF xmlns:rdf="http://www.w3.org/1999/02/22-rdf-syntax-ns#">
      <rdf:Description rdf:about=""/>
   </rdf:RDF>
</x:xmpmeta>
                                                                                                    
                                                                                                    
                                                                                                    
                                                                                                    
                                                                                                    
                                                                                                    
                                                                                                    
                                                                                                    
                                                                                                    
                                                                                                    
                                                                                                    
                                                                                                    
                                                                                                    
                                                                                                    
                                                                                                    
                                                                                                    
                                                                                                    
                                                                                                    
                                                                                                    
                                                                                                    
                           
<?xpacket end="w"?></metadata>
<defs>
    <style>
      .cls-1 {
        fill: #d92a21;
        fill-rule: evenodd;
      }
    </style>
  </defs>
  <path id="_318" data-name="318" class="cls-1" d="M1493.36,2250.91a5.555,5.555,0,0,0,4.15-5.72c0-4.52-3.84-6.15-8.26-6.15a24.559,24.559,0,0,0-7.99,1.46l0.17,5.95H1485l0.34-2.72a10.618,10.618,0,0,1,3.16-.51c1.97,0,3.84.72,3.84,2.82,0,2.21-1.63,3.3-4.35,3.3h-2.82v3.57h2.65c3.13,0,4.83,1.05,4.83,3.33,0,2.25-2.01,3.33-4.35,3.33a15.124,15.124,0,0,1-6.02-1.39l-1.43,3.84a15.773,15.773,0,0,0,7.62,1.87c4.48,0,9.62-2.07,9.62-7.58C1498.09,2253.96,1496.35,2251.69,1493.36,2250.91Zm9.69,12.54h14.62v-3.91h-4.59v-20.06h-4.35l-8.09,5.17,1.97,3.6,5.2-3.33v14.62h-4.76v3.91Zm34.27-17.95c0-3.74-2.72-6.43-7.99-6.43s-8.6,2.42-8.6,6.67c0,2.79,1.57,4.32,3.57,5.44-1.36.68-4.35,2.41-4.35,5.74,0,4.01,2.92,6.97,8.6,6.97,5.61,0,9.35-3.02,9.35-7.44,0-3.13-1.97-4.76-4.28-5.85C1535.01,2249.95,1537.32,2248.46,1537.32,2245.5Zm-11.52.24c0-1.5,1.19-2.52,3.19-2.52,1.97,0,3.23,1.02,3.23,2.52,0,1.83-1.7,2.85-2.75,3.3C1527.5,2248.29,1525.8,2247.51,1525.8,2245.74Zm6.73,10.84c0,1.97-1.33,3.13-3.64,3.13-2.28,0-3.6-1.05-3.6-3.03,0-2.14,2.17-3.26,3.16-3.7C1530.66,2253.83,1532.53,2254.68,1532.53,2256.58Z" transform="translate(-1480.84 -2239.03)"/>
</svg>
