<svg xmlns="http://www.w3.org/2000/svg" width="59.125" height="24.85" viewBox="0 0 59.125 24.85">
  <metadata><?xpacket begin="﻿" id="W5M0MpCehiHzreSzNTczkc9d"?>
<x:xmpmeta xmlns:x="adobe:ns:meta/" x:xmptk="Adobe XMP Core 5.6-c142 79.160924, 2017/07/13-01:06:39        ">
   <rdf:RDF xmlns:rdf="http://www.w3.org/1999/02/22-rdf-syntax-ns#">
      <rdf:Description rdf:about=""/>
   </rdf:RDF>
</x:xmpmeta>
                                                                                                    
                                                                                                    
                                                                                                    
                                                                                                    
                                                                                                    
                                                                                                    
                                                                                                    
                                                                                                    
                                                                                                    
                                                                                                    
                                                                                                    
                                                                                                    
                                                                                                    
                                                                                                    
                                                                                                    
                                                                                                    
                                                                                                    
                                                                                                    
                                                                                                    
                                                                                                    
                           
<?xpacket end="w"?></metadata>
<defs>
    <style>
      .cls-1 {
        fill: #d92a21;
        fill-rule: evenodd;
      }
    </style>
  </defs>
  <path id="_568" data-name="568" class="cls-1" d="M737.159,2262.89c5.984,0,9.451-4.01,9.451-7.92s-2.889-7-8.533-7.14l-1.972-.07,0.238-5.1h9.009l0.1-4.18H731.516l-0.578,13.19h4.147c4.42,0,5.848,1.63,5.848,3.64,0,2.11-1.53,3.37-3.978,3.37a16.04,16.04,0,0,1-5.915-1.4l-1.462,3.74A17.606,17.606,0,0,0,737.159,2262.89Zm28.321-20.5,0.238-3.98a10.962,10.962,0,0,0-3.059-.34c-8.67,0-12.749,6.19-12.749,14.35,0,5.95,3.162,10.47,9.179,10.47,5.1,0,8.941-3.5,8.941-8.26s-3.332-7.14-7.479-7.14a11.446,11.446,0,0,0-5.3,1.46,7.117,7.117,0,0,1,7.582-6.73A17.807,17.807,0,0,1,765.48,2242.39Zm-10.369,11.12v-0.82a7.471,7.471,0,0,1,3.876-1.19c2.448,0,3.672,1.33,3.672,3.64a3.364,3.364,0,0,1-3.6,3.57C756.947,2258.71,755.111,2257.25,755.111,2253.51Zm33.013-9.01c0-3.74-2.72-6.43-7.989-6.43s-8.6,2.42-8.6,6.67c0,2.79,1.564,4.32,3.569,5.44-1.359.68-4.351,2.41-4.351,5.74,0,4.01,2.924,6.97,8.6,6.97,5.609,0,9.349-3.02,9.349-7.44,0-3.13-1.972-4.76-4.284-5.85C785.812,2248.95,788.124,2247.46,788.124,2244.5Zm-11.525.24c0-1.5,1.19-2.52,3.2-2.52,1.972,0,3.23,1.02,3.23,2.52,0,1.83-1.7,2.85-2.754,3.3C778.3,2247.29,776.6,2246.51,776.6,2244.74Zm6.732,10.84c0,1.97-1.326,3.13-3.638,3.13-2.278,0-3.6-1.05-3.6-3.03,0-2.14,2.176-3.26,3.162-3.7C781.461,2252.83,783.331,2253.68,783.331,2255.58Z" transform="translate(-729.563 -2238.06)"/>
</svg>
