<svg xmlns="http://www.w3.org/2000/svg" width="63.188" height="24.85" viewBox="0 0 63.188 24.85">
  <metadata><?xpacket begin="﻿" id="W5M0MpCehiHzreSzNTczkc9d"?>
<x:xmpmeta xmlns:x="adobe:ns:meta/" x:xmptk="Adobe XMP Core 5.6-c142 79.160924, 2017/07/13-01:06:39        ">
   <rdf:RDF xmlns:rdf="http://www.w3.org/1999/02/22-rdf-syntax-ns#">
      <rdf:Description rdf:about=""/>
   </rdf:RDF>
</x:xmpmeta>
                                                                                                    
                                                                                                    
                                                                                                    
                                                                                                    
                                                                                                    
                                                                                                    
                                                                                                    
                                                                                                    
                                                                                                    
                                                                                                    
                                                                                                    
                                                                                                    
                                                                                                    
                                                                                                    
                                                                                                    
                                                                                                    
                                                                                                    
                                                                                                    
                                                                                                    
                                                                                                    
                           
<?xpacket end="w"?></metadata>
<defs>
    <style>
      .cls-1 {
        fill: #d92a21;
        fill-rule: evenodd;
      }
    </style>
  </defs>
  <path id="_8-year" data-name="8-year" class="cls-1" d="M508.14,2250.37c3.06,0,3.5-3.76,3.8-8.68h2.581v6.3l-1.6.5v1.6h6v-1.6l-1.4-.5v-6.5l1.4-.5v-1.7H508.3v1.7l1.6,0.5c-0.14,3.8-.24,6.28-2.3,6.28a4.153,4.153,0,0,1-.8-0.1l-0.4,2.38A5.569,5.569,0,0,0,508.14,2250.37Zm17.38-.08a7.891,7.891,0,0,0,4.561-1.68l-0.86-1.66a8.108,8.108,0,0,1-3.36.94,2.408,2.408,0,0,1-2.421-2.54l6.641-.06a10.694,10.694,0,0,0,.12-1.5c0-2.86-1.56-4.7-4.541-4.7-3.36,0-5.341,2.3-5.341,5.8C520.319,2248.29,522.08,2250.29,525.52,2250.29Zm1.581-6.8H523.48a2.027,2.027,0,0,1,1.98-2C526.621,2241.49,527.1,2242.35,527.1,2243.49Zm4.3-4.2,0.1,4.8h1.9l0.4-2.4h1.76v6.3l-2,.5v1.6h7v-1.6l-2-.5v-6.3h1.76l0.4,2.4h1.9l0.1-4.8H531.4Zm-34.5,5.21c0-3.74-2.72-6.43-7.989-6.43s-8.6,2.42-8.6,6.67c0,2.79,1.564,4.32,3.569,5.44-1.359.68-4.351,2.41-4.351,5.74,0,4.01,2.924,6.97,8.6,6.97,5.609,0,9.349-3.02,9.349-7.44,0-3.13-1.972-4.76-4.284-5.85C494.59,2248.95,496.9,2247.46,496.9,2244.5Zm-11.525.24c0-1.5,1.19-2.52,3.2-2.52,1.972,0,3.23,1.02,3.23,2.52,0,1.83-1.7,2.85-2.754,3.3C487.077,2247.29,485.377,2246.51,485.377,2244.74Zm6.732,10.84c0,1.97-1.326,3.13-3.638,3.13-2.278,0-3.6-1.05-3.6-3.03,0-2.14,2.176-3.26,3.162-3.7C490.239,2252.83,492.109,2253.68,492.109,2255.58Z" transform="translate(-479.531 -2238.06)"/>
</svg>
