<svg xmlns="http://www.w3.org/2000/svg" width="45" height="40.9" viewBox="0 0 45 40.9">
  <metadata><?xpacket begin="﻿" id="W5M0MpCehiHzreSzNTczkc9d"?>
<x:xmpmeta xmlns:x="adobe:ns:meta/" x:xmptk="Adobe XMP Core 5.6-c142 79.160924, 2017/07/13-01:06:39        ">
   <rdf:RDF xmlns:rdf="http://www.w3.org/1999/02/22-rdf-syntax-ns#">
      <rdf:Description rdf:about=""/>
   </rdf:RDF>
</x:xmpmeta>
                                                                                                    
                                                                                                    
                                                                                                    
                                                                                                    
                                                                                                    
                                                                                                    
                                                                                                    
                                                                                                    
                                                                                                    
                                                                                                    
                                                                                                    
                                                                                                    
                                                                                                    
                                                                                                    
                                                                                                    
                                                                                                    
                                                                                                    
                                                                                                    
                                                                                                    
                                                                                                    
                           
<?xpacket end="w"?></metadata>
<defs>
    <style>
      .cls-1 {
        fill: #d92a21;
        fill-rule: evenodd;
      }
    </style>
  </defs>
  <path id="license" class="cls-1" d="M772.1,2390.93H734.9a3.919,3.919,0,0,0-3.9,3.93v24.77a3.926,3.926,0,0,0,3.9,3.93h18.659a1.51,1.51,0,0,0,0-3.02H734.9a0.909,0.909,0,0,1-.9-0.91v-24.77a0.9,0.9,0,0,1,.9-0.91H772.1a0.9,0.9,0,0,1,.9.91v24.77a0.909,0.909,0,0,1-.9.91h-0.538a1.51,1.51,0,0,0,0,3.02H772.1a3.926,3.926,0,0,0,3.9-3.93v-24.77A3.92,3.92,0,0,0,772.1,2390.93Zm-1.187,27.32-1.051-1.68,0.417-1.94a1.5,1.5,0,0,0-1.007-1.75l-1.878-.61-0.919-1.75a1.5,1.5,0,0,0-1.894-.7l-1.826.75-1.824-.75a1.5,1.5,0,0,0-1.895.7l-0.919,1.75-1.878.61a1.5,1.5,0,0,0-1.007,1.75l0.417,1.94-1.051,1.68a1.5,1.5,0,0,0,.35,1.99l1.558,1.22,0.267,1.96a1.5,1.5,0,0,0,1.276,1.27v5.64a1.508,1.508,0,0,0,.689,1.27,1.485,1.485,0,0,0,.811.24,1.5,1.5,0,0,0,.623-0.13l2.583-1.19,2.585,1.19a1.507,1.507,0,0,0,2.122-1.38v-5.62a1.5,1.5,0,0,0,1.276-1.29l0.267-1.96,1.558-1.22A1.506,1.506,0,0,0,770.909,2418.25Zm-7.535,9.24a1.5,1.5,0,0,0-1.245,0l-1.084.5v-2.65l0.7,0.64a1.5,1.5,0,0,0,2.015,0l0.7-.64v2.65Zm3.3-8.04a1.515,1.515,0,0,0-.568.99l-0.165,1.22-1.223-.05a1.5,1.5,0,0,0-1.065.39l-0.907.83-0.906-.83a1.5,1.5,0,0,0-1.008-.39H760.78l-1.223.05-0.165-1.22a1.515,1.515,0,0,0-.568-0.99l-0.967-.75,0.653-1.04a1.536,1.536,0,0,0,.2-1.13l-0.259-1.2,1.165-.38a1.492,1.492,0,0,0,.869-0.73l0.57-1.09,1.132,0.47a1.488,1.488,0,0,0,1.135,0l1.133-.47,0.569,1.09a1.5,1.5,0,0,0,.869.73l1.165,0.38-0.259,1.2a1.536,1.536,0,0,0,.2,1.13l0.653,1.04Zm-26.767-17.48h27.446a1.51,1.51,0,0,0,0-3.02H739.912A1.51,1.51,0,0,0,739.912,2401.97Zm28.946,5.27a1.508,1.508,0,0,0-1.5-1.51H739.912a1.51,1.51,0,0,0,0,3.02h27.446A1.5,1.5,0,0,0,768.858,2407.24Zm-28.946,5.28a1.51,1.51,0,0,0,0,3.02h12.323a1.51,1.51,0,0,0,0-3.02H739.912Z" transform="translate(-731 -2390.94)"/>
</svg>
