<svg xmlns="http://www.w3.org/2000/svg" width="43" height="48.97" viewBox="0 0 43 48.97">
  <metadata><?xpacket begin="﻿" id="W5M0MpCehiHzreSzNTczkc9d"?>
<x:xmpmeta xmlns:x="adobe:ns:meta/" x:xmptk="Adobe XMP Core 5.6-c142 79.160924, 2017/07/13-01:06:39        ">
   <rdf:RDF xmlns:rdf="http://www.w3.org/1999/02/22-rdf-syntax-ns#">
      <rdf:Description rdf:about=""/>
   </rdf:RDF>
</x:xmpmeta>
                                                                                                    
                                                                                                    
                                                                                                    
                                                                                                    
                                                                                                    
                                                                                                    
                                                                                                    
                                                                                                    
                                                                                                    
                                                                                                    
                                                                                                    
                                                                                                    
                                                                                                    
                                                                                                    
                                                                                                    
                                                                                                    
                                                                                                    
                                                                                                    
                                                                                                    
                                                                                                    
                           
<?xpacket end="w"?></metadata>
<defs>
    <style>
      .cls-1 {
        fill: #d92a21;
        fill-rule: evenodd;
      }
    </style>
  </defs>
  <path id="mercury" class="cls-1" d="M1024,2390.08c0-.02-0.01-0.04-0.01-0.06a1.633,1.633,0,0,0-.05-0.33c-0.02-.05-0.04-0.09-0.06-0.14a1.2,1.2,0,0,0-.11-0.23c-0.02-.04-0.06-0.08-0.09-0.13a1.288,1.288,0,0,0-.16-0.17,0.689,0.689,0,0,0-.13-0.11c-0.03-.02-0.05-0.05-0.08-0.07a0.754,0.754,0,0,0-.13-0.06,0.262,0.262,0,0,0-.09-0.05l-20.07-8.62a1.51,1.51,0,0,0-1.18,0l-19.928,8.46c-0.033.01-.058,0.04-0.09,0.05a0.83,0.83,0,0,1-.13.06c-0.03.02-.053,0.05-0.081,0.07-0.045.04-.087,0.07-0.127,0.11a0.951,0.951,0,0,0-.164.18c-0.032.04-.064,0.08-0.091,0.12a1.845,1.845,0,0,0-.112.24,0.782,0.782,0,0,0-.053.13,1.414,1.414,0,0,0-.051.31c0,0.03-.013.05-0.013,0.08l0,0.01a0.017,0.017,0,0,1,0,.01v28.3a1.483,1.483,0,0,0,.871,1.35l20.049,9.23c0.04,0.02.09,0.03,0.14,0.05s0.07,0.03.11,0.04a1.431,1.431,0,0,0,.75,0c0.04-.01.08-0.03,0.11-0.04,0.05-.02.1-0.03,0.15-0.05l19.91-9.21h0.01l0.03-.02a1.327,1.327,0,0,0,.41-0.29,0.1,0.1,0,0,0,.04-0.03c0.02-.02.03-0.05,0.05-0.07a1.288,1.288,0,0,0,.22-0.35,0.517,0.517,0,0,0,.06-0.13,1.514,1.514,0,0,0,.09-0.48v-28.16Zm-18.82,9.54,15.82-7.2v22.32Zm-1.26-15.87,12.67,5.44-12.67,2.68v-8.12Zm8.15,9.45-9.52,4.33-0.07-.04-0.14-.06h0l-3.221-1.48Zm-11.15-9.45v8.76l-6.342,1.35L986.2,2390ZM984,2392.28l15.743,7.25-9.218,20.76L984,2417.28v-25Zm17.05,11.7v21.15l-7.8-3.59Zm3-1.31,15.83,15.13-15.83,7.33v-22.46Z" transform="translate(-981 -2380)"/>
</svg>
