<svg xmlns="http://www.w3.org/2000/svg" width="120.91" height="24.78" viewBox="0 0 120.91 24.78">
  <metadata><?xpacket begin="﻿" id="W5M0MpCehiHzreSzNTczkc9d"?>
<x:xmpmeta xmlns:x="adobe:ns:meta/" x:xmptk="Adobe XMP Core 5.6-c142 79.160924, 2017/07/13-01:06:39        ">
   <rdf:RDF xmlns:rdf="http://www.w3.org/1999/02/22-rdf-syntax-ns#">
      <rdf:Description rdf:about=""/>
   </rdf:RDF>
</x:xmpmeta>
                                                                                                    
                                                                                                    
                                                                                                    
                                                                                                    
                                                                                                    
                                                                                                    
                                                                                                    
                                                                                                    
                                                                                                    
                                                                                                    
                                                                                                    
                                                                                                    
                                                                                                    
                                                                                                    
                                                                                                    
                                                                                                    
                                                                                                    
                                                                                                    
                                                                                                    
                                                                                                    
                           
<?xpacket end="w"?></metadata>
<defs>
    <style>
      .cls-1 {
        fill: #d92a21;
        fill-rule: evenodd;
      }
    </style>
  </defs>
  <path id="ХАССП" class="cls-1" d="M1230.34,2421.56v2.89h10.1v-2.89l-2.14-.82,3.8-4.89,3.74,5.03-1.56.68v2.89h10.54v-2.89l-2.38-.82-6.63-8.6,6.25-7.92,2.25-.68v-3.06l-9.79.17v2.89l1.83,0.72-3.33,4.52-3.5-4.66,1.7-.58v-3.06l-10.2.17v2.89l1.97,0.65,6.33,8.23-6.87,8.29Zm24.99,0v2.89h10.27v-2.89l-2.65-.95,0.85-2.45h7.54l0.82,2.48-2.55.92v2.89h10.81v-2.89l-2.38-.95-7.31-20.13-5.44.1-7.48,20.03Zm14.89-7.04h-5.23l2.68-8.05Zm26.83-9.65,0.78,3.26h3.33l0.17-6.46a23.2,23.2,0,0,0-7.92-1.6c-6.97,0-11.46,4.76-11.46,12.75,0,7.89,3.98,12.04,10.88,12.04a13.42,13.42,0,0,0,8.91-3.71l-1.87-3.06a12.1,12.1,0,0,1-6.46,2.38c-3.57,0-5.78-2.31-5.78-7.82,0-5.67,2.04-8.33,5.61-8.33A12.888,12.888,0,0,1,1297.05,2404.87Zm22.67,0,0.79,3.26h3.33l0.17-6.46a23.2,23.2,0,0,0-7.92-1.6c-6.97,0-11.46,4.76-11.46,12.75,0,7.89,3.98,12.04,10.88,12.04a13.42,13.42,0,0,0,8.91-3.71l-1.87-3.06a12.1,12.1,0,0,1-6.46,2.38c-3.57,0-5.78-2.31-5.78-7.82,0-5.67,2.04-8.33,5.61-8.33A12.775,12.775,0,0,1,1319.72,2404.87Zm6.91,16.69v2.89H1337v-2.89l-2.55-1.02v-15.98h8.97v15.98l-2.55,1.02v2.89h10.37v-2.89l-2.55-1.02v-15.98l2.55-1.02v-3.06h-16.79l-7.82.17v2.89l2.55,1.02v15.98Z" transform="translate(-1230.34 -2400.06)"/>
</svg>
