<svg xmlns="http://www.w3.org/2000/svg" width="43.813" height="41.85" viewBox="0 0 43.813 41.85">
  <metadata><?xpacket begin="﻿" id="W5M0MpCehiHzreSzNTczkc9d"?>
<x:xmpmeta xmlns:x="adobe:ns:meta/" x:xmptk="Adobe XMP Core 5.6-c142 79.160924, 2017/07/13-01:06:39        ">
   <rdf:RDF xmlns:rdf="http://www.w3.org/1999/02/22-rdf-syntax-ns#">
      <rdf:Description rdf:about=""/>
   </rdf:RDF>
</x:xmpmeta>
                                                                                                    
                                                                                                    
                                                                                                    
                                                                                                    
                                                                                                    
                                                                                                    
                                                                                                    
                                                                                                    
                                                                                                    
                                                                                                    
                                                                                                    
                                                                                                    
                                                                                                    
                                                                                                    
                                                                                                    
                                                                                                    
                                                                                                    
                                                                                                    
                                                                                                    
                                                                                                    
                           
<?xpacket end="w"?></metadata>
<defs>
    <style>
      .cls-1 {
        fill: #d92a21;
        fill-rule: evenodd;
      }
    </style>
  </defs>
  <path id="_100_natural" data-name="100_natural" class="cls-1" d="M506.929,4470.91c-2.83,0-4.723-.17-4.975-0.19a0.985,0.985,0,0,1-.837-0.64,1.013,1.013,0,0,1,.193-1.04c0.078-.08,7.833-8.72,9.592-16.12,1.612-6.77,4.967-20.85,20.48-18.99a1.007,1.007,0,0,1-.236,2c-12.095-1.45-15.943,7.53-18.308,17.46-1.432,6.02-6.322,12.52-8.721,15.44,5.4,0.2,20.5.07,28.851-7.04,6.164-5.24,9.609-12.15,8.778-17.62a8.521,8.521,0,0,0-5.44-6.81,1.017,1.017,0,0,1-.535-1.32,1,1,0,0,1,1.3-.54,10.586,10.586,0,0,1,6.641,8.37c0.934,6.14-2.78,13.78-9.462,19.46C526.517,4469.91,513.892,4470.91,506.929,4470.91Zm9.445-8.28a0.978,0.978,0,0,1-.813-0.42,1.01,1.01,0,0,1,.236-1.4c4.95-3.54,7.72-8.19,10.654-13.1,3.828-6.43,7.786-13.07,16.895-18.51a0.99,0.99,0,0,1,1.364.35,1.013,1.013,0,0,1-.35,1.38c-8.676,5.18-12.5,11.6-16.2,17.81-3.044,5.11-5.919,9.93-11.209,13.71A1.012,1.012,0,0,1,516.374,4462.63Z" transform="translate(-501.031 -4429.06)"/>
</svg>
