<svg xmlns="http://www.w3.org/2000/svg" width="82.755" height="24.85"><path data-name="200+" d="M-.015 20.24v4.15h17.576v-4.15h-10.2c6.052-5.2 9.621-8.77 9.621-13.53 0-5.1-3.841-6.7-9.281-6.7A26.06 26.06 0 0 0 .222 1.37l.17 6.29h3.569l.34-2.89a8.5 8.5 0 0 1 3.162-.61c2.414 0 3.978 1.33 3.978 3.4.001 3.33-4.181 6.8-11.456 12.68zM30.545.01c-6.69 0-9.24 4.66-9.24 12.58 0 7.89 2.55 12.24 8.9 12.24 6.4 0 9.12-4.59 9.12-12.75 0-7.75-2.04-12.07-8.78-12.07zm-.2 4.25c2.62 0 3.43 2.04 3.43 7.99 0 6.12-.91 8.33-3.43 8.33s-3.53-2.21-3.53-8.16c0-6.12.95-8.16 3.53-8.16zM52.475.01c-6.69 0-9.24 4.66-9.24 12.58 0 7.89 2.55 12.24 8.9 12.24 6.4 0 9.12-4.59 9.12-12.75 0-7.75-2.04-12.07-8.78-12.07zm-.2 4.25c2.62 0 3.43 2.04 3.43 7.99 0 6.12-.91 8.33-3.43 8.33s-3.53-2.21-3.53-8.16c0-6.12.95-8.16 3.53-8.16zm19.14 8.95h-6.86v4.01h6.86v7.17h4.52v-7.17h6.8v-4.01h-6.8V6.27h-4.52v6.94z" fill="#d92a21" fill-rule="evenodd"/></svg>