<svg xmlns="http://www.w3.org/2000/svg" width="104.69" height="24.88"><path data-name="3000+" d="M12.52 11.88a5.555 5.555 0 0 0 4.15-5.72c0-4.52-3.84-6.15-8.26-6.15A24.559 24.559 0 0 0 .42 1.47l.17 5.95h3.57L4.5 4.7a10.618 10.618 0 0 1 3.16-.51c1.97 0 3.84.72 3.84 2.82 0 2.21-1.63 3.3-4.35 3.3H4.33v3.57h2.65c3.13 0 4.83 1.05 4.83 3.33 0 2.25-2.01 3.33-4.35 3.33a15.124 15.124 0 0 1-6.02-1.39L.01 22.99a15.773 15.773 0 0 0 7.62 1.87c4.48 0 9.62-2.07 9.62-7.58 0-2.35-1.74-4.62-4.73-5.4zM30.57.04c-6.69 0-9.24 4.66-9.24 12.58 0 7.89 2.55 12.24 8.9 12.24 6.4 0 9.12-4.59 9.12-12.75 0-7.75-2.04-12.07-8.78-12.07zm-.2 4.25c2.62 0 3.43 2.04 3.43 7.99 0 6.12-.91 8.33-3.43 8.33s-3.53-2.21-3.53-8.16c0-6.12.95-8.16 3.53-8.16zM52.5.04c-6.69 0-9.24 4.66-9.24 12.58 0 7.89 2.55 12.24 8.9 12.24 6.4 0 9.12-4.59 9.12-12.75C61.28 4.36 59.24.04 52.5.04zm-.2 4.25c2.62 0 3.43 2.04 3.43 7.99 0 6.12-.91 8.33-3.43 8.33s-3.53-2.21-3.53-8.16c0-6.12.95-8.16 3.53-8.16zM74.43.04c-6.69 0-9.24 4.66-9.24 12.58 0 7.89 2.55 12.24 8.9 12.24 6.4 0 9.12-4.59 9.12-12.75 0-7.75-2.04-12.07-8.78-12.07zm-.2 4.25c2.62 0 3.43 2.04 3.43 7.99 0 6.12-.91 8.33-3.43 8.33s-3.53-2.21-3.53-8.16c0-6.12.95-8.16 3.53-8.16zm19.14 8.95h-6.86v4.01h6.86v7.17h4.52v-7.17h6.8v-4.01h-6.8V6.3h-4.52v6.94z" fill="#d92a21" fill-rule="evenodd"/></svg>