<svg xmlns="http://www.w3.org/2000/svg" width="57.07" height="24.88"><path data-name="318" d="M12.52 11.88a5.555 5.555 0 0 0 4.15-5.72c0-4.52-3.84-6.15-8.26-6.15A24.559 24.559 0 0 0 .42 1.47l.17 5.95h3.57L4.5 4.7a10.618 10.618 0 0 1 3.16-.51c1.97 0 3.84.72 3.84 2.82 0 2.21-1.63 3.3-4.35 3.3H4.33v3.57h2.65c3.13 0 4.83 1.05 4.83 3.33 0 2.25-2.01 3.33-4.35 3.33a15.124 15.124 0 0 1-6.02-1.39L.01 22.99a15.773 15.773 0 0 0 7.62 1.87c4.48 0 9.62-2.07 9.62-7.58 0-2.35-1.74-4.62-4.73-5.4zm9.69 12.54h14.62v-3.91h-4.59V.45h-4.35L19.8 5.62l1.97 3.6 5.2-3.33v14.62h-4.76v3.91zM56.48 6.47c0-3.74-2.72-6.43-7.99-6.43s-8.6 2.42-8.6 6.67c0 2.79 1.57 4.32 3.57 5.44-1.36.68-4.35 2.41-4.35 5.74 0 4.01 2.92 6.97 8.6 6.97 5.61 0 9.35-3.02 9.35-7.44 0-3.13-1.97-4.76-4.28-5.85 1.39-.65 3.7-2.14 3.7-5.1zm-11.52.24c0-1.5 1.19-2.52 3.19-2.52 1.97 0 3.23 1.02 3.23 2.52 0 1.83-1.7 2.85-2.75 3.3-1.97-.75-3.67-1.53-3.67-3.3zm6.73 10.84c0 1.97-1.33 3.13-3.64 3.13-2.28 0-3.6-1.05-3.6-3.03 0-2.14 2.17-3.26 3.16-3.7 2.21.85 4.08 1.7 4.08 3.6z" fill="#d92a21" fill-rule="evenodd"/></svg>