<svg xmlns="http://www.w3.org/2000/svg" width="59.125" height="24.85"><path data-name="568" d="M7.596 24.83c5.984 0 9.451-4.01 9.451-7.92s-2.889-7-8.533-7.14L6.542 9.7l.238-5.1h9.009l.1-4.18H1.953l-.578 13.19h4.147c4.42 0 5.848 1.63 5.848 3.64 0 2.11-1.53 3.37-3.978 3.37a16.04 16.04 0 0 1-5.915-1.4L.015 22.96a17.606 17.606 0 0 0 7.581 1.87zm28.321-20.5l.238-3.98a10.962 10.962 0 0 0-3.059-.34c-8.67 0-12.749 6.19-12.749 14.35 0 5.95 3.162 10.47 9.179 10.47 5.1 0 8.941-3.5 8.941-8.26s-3.332-7.14-7.479-7.14a11.446 11.446 0 0 0-5.3 1.46 7.117 7.117 0 0 1 7.582-6.73 17.807 17.807 0 0 1 2.647.17zM25.548 15.45v-.82a7.471 7.471 0 0 1 3.876-1.19c2.448 0 3.672 1.33 3.672 3.64a3.364 3.364 0 0 1-3.6 3.57c-2.112 0-3.948-1.46-3.948-5.2zm33.013-9.01c0-3.74-2.72-6.43-7.989-6.43s-8.6 2.42-8.6 6.67c0 2.79 1.564 4.32 3.569 5.44-1.359.68-4.351 2.41-4.351 5.74 0 4.01 2.924 6.97 8.6 6.97 5.609 0 9.349-3.02 9.349-7.44 0-3.13-1.972-4.76-4.284-5.85 1.394-.65 3.706-2.14 3.706-5.1zm-11.525.24c0-1.5 1.19-2.52 3.2-2.52 1.972 0 3.23 1.02 3.23 2.52 0 1.83-1.7 2.85-2.754 3.3-1.975-.75-3.675-1.53-3.675-3.3zm6.732 10.84c0 1.97-1.326 3.13-3.638 3.13-2.278 0-3.6-1.05-3.6-3.03 0-2.14 2.176-3.26 3.162-3.7 2.206.85 4.076 1.7 4.076 3.6z" fill="#d92a21" fill-rule="evenodd"/></svg>