<svg xmlns="http://www.w3.org/2000/svg" width="63.188" height="24.85"><path data-name="8-year" d="M28.609 12.31c3.06 0 3.5-3.76 3.8-8.68h2.581v6.3l-1.6.5v1.6h6v-1.6l-1.4-.5v-6.5l1.4-.5v-1.7H28.769v1.7l1.6.5c-.14 3.8-.24 6.28-2.3 6.28a4.153 4.153 0 0 1-.8-.1l-.4 2.38a5.569 5.569 0 0 0 1.74.32zm17.38-.08a7.891 7.891 0 0 0 4.561-1.68l-.86-1.66a8.108 8.108 0 0 1-3.36.94 2.408 2.408 0 0 1-2.421-2.54l6.641-.06a10.694 10.694 0 0 0 .12-1.5c0-2.86-1.56-4.7-4.541-4.7-3.36 0-5.341 2.3-5.341 5.8 0 3.4 1.761 5.4 5.201 5.4zm1.581-6.8h-3.621a2.027 2.027 0 0 1 1.98-2c1.161 0 1.64.86 1.64 2zm4.3-4.2l.1 4.8h1.9l.4-2.4h1.76v6.3l-2 .5v1.6h7v-1.6l-2-.5v-6.3h1.76l.4 2.4h1.9l.1-4.8H51.869zm-34.5 5.21c0-3.74-2.72-6.43-7.989-6.43s-8.6 2.42-8.6 6.67c0 2.79 1.564 4.32 3.569 5.44-1.359.68-4.351 2.41-4.351 5.74 0 4.01 2.924 6.97 8.6 6.97 5.609 0 9.349-3.02 9.349-7.44 0-3.13-1.972-4.76-4.284-5.85 1.395-.65 3.705-2.14 3.705-5.1zm-11.525.24c0-1.5 1.19-2.52 3.2-2.52 1.972 0 3.23 1.02 3.23 2.52 0 1.83-1.7 2.85-2.754 3.3-1.975-.75-3.675-1.53-3.675-3.3zm6.732 10.84c0 1.97-1.326 3.13-3.638 3.13-2.278 0-3.6-1.05-3.6-3.03 0-2.14 2.176-3.26 3.162-3.7 2.207.85 4.077 1.7 4.077 3.6z" fill="#d92a21" fill-rule="evenodd"/></svg>