<svg xmlns="http://www.w3.org/2000/svg" width="46" height="45" viewBox="0 0 46 45">
  <metadata><?xpacket begin="﻿" id="W5M0MpCehiHzreSzNTczkc9d"?>
<x:xmpmeta xmlns:x="adobe:ns:meta/" x:xmptk="Adobe XMP Core 5.6-c142 79.160924, 2017/07/13-01:06:39        ">
   <rdf:RDF xmlns:rdf="http://www.w3.org/1999/02/22-rdf-syntax-ns#">
      <rdf:Description rdf:about=""/>
   </rdf:RDF>
</x:xmpmeta>
                                                                                                    
                                                                                                    
                                                                                                    
                                                                                                    
                                                                                                    
                                                                                                    
                                                                                                    
                                                                                                    
                                                                                                    
                                                                                                    
                                                                                                    
                                                                                                    
                                                                                                    
                                                                                                    
                                                                                                    
                                                                                                    
                                                                                                    
                                                                                                    
                                                                                                    
                                                                                                    
                           
<?xpacket end="w"?></metadata>
<defs>
    <style>
      .cls-1 {
        fill: #d92a21;
        fill-rule: evenodd;
      }
    </style>
  </defs>
  <path id="cert" class="cls-1" d="M1491.5,2392.66h20.93a1.5,1.5,0,1,0,0-3H1491.5A1.5,1.5,0,0,0,1491.5,2392.66Zm0,8.93h20.93a1.5,1.5,0,1,0,0-3H1491.5A1.5,1.5,0,0,0,1491.5,2401.59Zm11.95,5.93H1491.5a1.5,1.5,0,0,0,0,3h11.95A1.5,1.5,0,1,0,1503.45,2407.52Zm17.36-25.49a1.553,1.553,0,0,0-.31-0.03h-31.56a1.333,1.333,0,0,0-.49.09,4.441,4.441,0,0,0-3.58,4.35v29.02h-4.39a1.507,1.507,0,0,0-1.51,1.5v5.54a4.517,4.517,0,0,0,4.52,4.5h31.5a1.577,1.577,0,0,0,.49-0.09,4.49,4.49,0,0,0,3.58-4.41v-28.96h4.39a1.507,1.507,0,0,0,1.51-1.5v-5.6A4.437,4.437,0,0,0,1520.81,2382.03Zm-32.93,11.68v-7.27a1.44,1.44,0,0,1,1.44-1.44h26.99a4.276,4.276,0,0,0-.26,1.44v36.06a1.441,1.441,0,1,1-2.88,0v-5.54a1.513,1.513,0,0,0-1.51-1.5h-23.78v-21.75Zm-5.9,28.79v-4.04h28.17v4.04a4.637,4.637,0,0,0,.27,1.5h-26.93A1.507,1.507,0,0,1,1481.98,2422.5Zm39.97-31.96h-2.89v-4.1a1.445,1.445,0,0,1,2.89,0v4.1Z" transform="translate(-1478.97 -2382)"/>
</svg>
