<svg xmlns="http://www.w3.org/2000/svg" width="43.85" height="37.85" viewBox="0 0 43.85 37.85">
  <metadata><?xpacket begin="﻿" id="W5M0MpCehiHzreSzNTczkc9d"?>
<x:xmpmeta xmlns:x="adobe:ns:meta/" x:xmptk="Adobe XMP Core 5.6-c142 79.160924, 2017/07/13-01:06:39        ">
   <rdf:RDF xmlns:rdf="http://www.w3.org/1999/02/22-rdf-syntax-ns#">
      <rdf:Description rdf:about=""/>
   </rdf:RDF>
</x:xmpmeta>
                                                                                                    
                                                                                                    
                                                                                                    
                                                                                                    
                                                                                                    
                                                                                                    
                                                                                                    
                                                                                                    
                                                                                                    
                                                                                                    
                                                                                                    
                                                                                                    
                                                                                                    
                                                                                                    
                                                                                                    
                                                                                                    
                                                                                                    
                                                                                                    
                                                                                                    
                                                                                                    
                           
<?xpacket end="w"?></metadata>
<defs>
    <style>
      .cls-1 {
        fill: #d92a21;
        fill-rule: evenodd;
      }
    </style>
  </defs>
  <path id="clear" class="cls-1" d="M1107.99,4939.42a0.992,0.992,0,0,1-.77-0.36l-20.92-25.2a1.022,1.022,0,0,1-.04-1.26l7.85-10.61a0.981,0.981,0,0,1,.8-0.41h26.16a0.963,0.963,0,0,1,.79.41l7.85,10.61a1.021,1.021,0,0,1-.03,1.26l-20.93,25.2A0.987,0.987,0,0,1,1107.99,4939.42Zm-19.66-26.25,19.66,23.67,19.65-23.67-7.07-9.57h-25.16Zm40.58,1.05h-41.85a1.015,1.015,0,0,1,0-2.03h41.85A1.015,1.015,0,0,1,1128.91,4914.22Zm-20.92,25.2a1.047,1.047,0,0,1-.3-0.05,1,1,0,0,1-.65-1.27l7.84-25.2a1,1,0,0,1,1.25-.66,1.023,1.023,0,0,1,.66,1.27l-7.85,25.2A1.011,1.011,0,0,1,1107.99,4939.42Zm0,0a0.993,0.993,0,0,1-.95-0.71l-7.85-25.2a1.01,1.01,0,0,1,.65-1.27,1,1,0,0,1,1.25.66l7.85,25.2a1.022,1.022,0,0,1-.65,1.27A1.047,1.047,0,0,1,1107.99,4939.42Zm-7.85-25.2a0.991,0.991,0,0,1-.89-0.56l-5.23-10.61a1.018,1.018,0,0,1,.44-1.36,0.993,0.993,0,0,1,1.34.45l5.23,10.61a1.013,1.013,0,0,1-.45,1.36A0.988,0.988,0,0,1,1100.14,4914.22Zm0,0a0.974,0.974,0,0,1-.6-0.21,1.014,1.014,0,0,1-.2-1.41l7.85-10.61a0.984,0.984,0,0,1,1.39-.21,1.018,1.018,0,0,1,.2,1.42l-7.84,10.61A1,1,0,0,1,1100.14,4914.22Zm15.7,0a0.968,0.968,0,0,1-.8-0.41l-7.85-10.61a1.027,1.027,0,0,1,.2-1.42,0.984,0.984,0,0,1,1.39.21l7.85,10.61a1.014,1.014,0,0,1-.2,1.41A0.968,0.968,0,0,1,1115.84,4914.22Zm-0.01,0a0.988,0.988,0,0,1-.44-0.11,1.031,1.031,0,0,1-.45-1.36l5.24-10.61a0.979,0.979,0,0,1,1.33-.45,1.031,1.031,0,0,1,.45,1.36l-5.23,10.61A1.016,1.016,0,0,1,1115.83,4914.22Z" transform="translate(-1086.06 -4901.56)"/>
</svg>
