<svg xmlns="http://www.w3.org/2000/svg" width="39.53" height="39.53" viewBox="0 0 39.53 39.53">
  <metadata><?xpacket begin="﻿" id="W5M0MpCehiHzreSzNTczkc9d"?>
<x:xmpmeta xmlns:x="adobe:ns:meta/" x:xmptk="Adobe XMP Core 5.6-c142 79.160924, 2017/07/13-01:06:39        ">
   <rdf:RDF xmlns:rdf="http://www.w3.org/1999/02/22-rdf-syntax-ns#">
      <rdf:Description rdf:about=""/>
   </rdf:RDF>
</x:xmpmeta>
                                                                                                    
                                                                                                    
                                                                                                    
                                                                                                    
                                                                                                    
                                                                                                    
                                                                                                    
                                                                                                    
                                                                                                    
                                                                                                    
                                                                                                    
                                                                                                    
                                                                                                    
                                                                                                    
                                                                                                    
                                                                                                    
                                                                                                    
                                                                                                    
                                                                                                    
                                                                                                    
                           
<?xpacket end="w"?></metadata>
<defs>
    <style>
      .cls-1 {
        fill: #d92a21;
        fill-rule: evenodd;
      }
    </style>
  </defs>
  <path id="delivery" class="cls-1" d="M1098.34,4626a0.772,0.772,0,0,1-.15-0.02,0.994,0.994,0,0,1-.74-0.53l-3.66-7.21-7.21-3.67a1,1,0,0,1-.26-1.6l2.67-2.67a0.984,0.984,0,0,1,.94-0.26l5.1,1.23,7.6-8.35-14.4-4.88a1.006,1.006,0,0,1-.65-0.72,0.971,0.971,0,0,1,.27-0.93l4.36-4.37a1.007,1.007,0,0,1,.89-0.27l17.21,3.32,7.24-7.25a4.688,4.688,0,1,1,6.62,6.64l-7.24,7.24,3.32,17.22a1,1,0,0,1-.28.9l-4.35,4.36a1.048,1.048,0,0,1-.94.27,1.018,1.018,0,0,1-.72-0.66l-4.87-14.4-8.34,7.61,1.23,5.1a1,1,0,0,1-.27.94l-2.66,2.66A1,1,0,0,1,1098.34,4626Zm-9.63-12.59,6.27,3.19a1.038,1.038,0,0,1,.44.44l3.19,6.28,1.29-1.3-1.23-5.13a0.977,0.977,0,0,1,.3-0.97l9.9-9.04a1.044,1.044,0,0,1,.93-0.23,1.02,1.02,0,0,1,.69.65l4.85,14.33,2.85-2.85-3.32-17.22a1,1,0,0,1,.28-0.9l7.61-7.62a2.687,2.687,0,1,0-3.8-3.8h0l-7.62,7.62a0.971,0.971,0,0,1-.89.27l-17.21-3.32-2.84,2.85,14.31,4.85a1.015,1.015,0,0,1,.65.7,1,1,0,0,1-.23.92l-9.03,9.92a0.977,0.977,0,0,1-.97.3l-5.13-1.24Zm29.54-24.88h0Z" transform="translate(-1086.03 -4586.47)"/>
</svg>
