<svg xmlns="http://www.w3.org/2000/svg" width="43.75" height="43.97" viewBox="0 0 43.75 43.97">
  <metadata><?xpacket begin="﻿" id="W5M0MpCehiHzreSzNTczkc9d"?>
<x:xmpmeta xmlns:x="adobe:ns:meta/" x:xmptk="Adobe XMP Core 5.6-c142 79.160924, 2017/07/13-01:06:39        ">
   <rdf:RDF xmlns:rdf="http://www.w3.org/1999/02/22-rdf-syntax-ns#">
      <rdf:Description rdf:about=""/>
   </rdf:RDF>
</x:xmpmeta>
                                                                                                    
                                                                                                    
                                                                                                    
                                                                                                    
                                                                                                    
                                                                                                    
                                                                                                    
                                                                                                    
                                                                                                    
                                                                                                    
                                                                                                    
                                                                                                    
                                                                                                    
                                                                                                    
                                                                                                    
                                                                                                    
                                                                                                    
                                                                                                    
                                                                                                    
                                                                                                    
                           
<?xpacket end="w"?></metadata>
<defs>
    <style>
      .cls-1 {
        fill: #d92a21;
        fill-rule: evenodd;
      }
    </style>
  </defs>
  <path id="eco" class="cls-1" d="M522.931,4630.98a22,22,0,1,1,21.843-21.99A21.938,21.938,0,0,1,522.931,4630.98Zm0-41.99a20,20,0,1,0,19.854,20A19.948,19.948,0,0,0,522.931,4588.99Zm13.941,24.09a9.512,9.512,0,0,1-6.946-3,9.545,9.545,0,0,1-13.9,0,9.514,9.514,0,0,1-6.948,3,9.71,9.71,0,0,1-7.783-3.95,1.006,1.006,0,0,1,.208-1.4,0.985,0.985,0,0,1,1.391.21,7.619,7.619,0,0,0,12.334-.01,1,1,0,0,1,.8-0.4h0a1,1,0,0,1,.8.4,7.577,7.577,0,0,0,12.3,0,1.024,1.024,0,0,1,1.6,0,7.614,7.614,0,0,0,12.336,0,1,1,0,0,1,1.391-.21,1.017,1.017,0,0,1,.208,1.41A9.717,9.717,0,0,1,536.872,4613.08Zm0-11.37a9.512,9.512,0,0,1-6.946-3,9.545,9.545,0,0,1-13.9,0,9.516,9.516,0,0,1-6.948,3,9.615,9.615,0,0,1-5.213-1.53,1.013,1.013,0,0,1-.3-1.39,0.993,0.993,0,0,1,1.374-.3,7.63,7.63,0,0,0,10.292-1.93,1,1,0,0,1,.8-0.4h0a1,1,0,0,1,.8.4,7.591,7.591,0,0,0,12.3,0,1.024,1.024,0,0,1,1.6,0,7.622,7.622,0,0,0,10.223,1.97,0.994,0.994,0,0,1,1.371.32,1,1,0,0,1-.316,1.38A9.585,9.585,0,0,1,536.872,4601.71Zm0,22.74a9.512,9.512,0,0,1-6.946-3,9.545,9.545,0,0,1-13.9,0,9.516,9.516,0,0,1-6.948,3,9.675,9.675,0,0,1-1.52-.12,1,1,0,0,1,.309-1.98,7.035,7.035,0,0,0,1.211.1,7.606,7.606,0,0,0,6.151-3.15,1,1,0,0,1,.8-0.4h0a1,1,0,0,1,.8.4,7.577,7.577,0,0,0,12.3,0,1.037,1.037,0,0,1,1.6,0,7.6,7.6,0,0,0,6.149,3.15,8.2,8.2,0,0,0,1.113-.08,1,1,0,0,1,.287,1.98A9.3,9.3,0,0,1,536.872,4624.45Z" transform="translate(-501.094 -4587)"/>
</svg>
