<svg xmlns="http://www.w3.org/2000/svg" width="40.907" height="45" viewBox="0 0 40.907 45">
  <metadata><?xpacket begin="﻿" id="W5M0MpCehiHzreSzNTczkc9d"?>
<x:xmpmeta xmlns:x="adobe:ns:meta/" x:xmptk="Adobe XMP Core 5.6-c142 79.160924, 2017/07/13-01:06:39        ">
   <rdf:RDF xmlns:rdf="http://www.w3.org/1999/02/22-rdf-syntax-ns#">
      <rdf:Description rdf:about=""/>
   </rdf:RDF>
</x:xmpmeta>
                                                                                                    
                                                                                                    
                                                                                                    
                                                                                                    
                                                                                                    
                                                                                                    
                                                                                                    
                                                                                                    
                                                                                                    
                                                                                                    
                                                                                                    
                                                                                                    
                                                                                                    
                                                                                                    
                                                                                                    
                                                                                                    
                                                                                                    
                                                                                                    
                                                                                                    
                                                                                                    
                           
<?xpacket end="w"?></metadata>
<defs>
    <style>
      .cls-1 {
        fill: #d92a21;
        fill-rule: evenodd;
      }
    </style>
  </defs>
  <path id="individual" class="cls-1" d="M535.165,5065.43h-27.34a6.433,6.433,0,0,1-6.414-6.43,1,1,0,0,1,1-1h38.173a1,1,0,0,1,1,1A6.433,6.433,0,0,1,535.165,5065.43ZM503.52,5060a4.431,4.431,0,0,0,4.305,3.43h27.34a4.431,4.431,0,0,0,4.305-3.43H503.52Zm37.444,43H502.026a0.988,0.988,0,0,1-.765-0.36,1,1,0,0,1-.217-0.82l5.551-31.08a1,1,0,0,1,.982-0.82h27.836a1,1,0,0,1,.982.82l5.551,31.08a1,1,0,0,1-.217.82A0.988,0.988,0,0,1,540.964,5103Zm-37.746-2h36.554l-5.193-29.08H508.412Zm25.426-29.08h-14.3a1,1,0,0,1-1-1v-6.49a1,1,0,0,1,1-1h14.3a1,1,0,0,1,1,1v6.49A1,1,0,0,1,528.644,5071.92Zm-13.3-2h12.3v-4.49h-12.3v4.49Zm6.15,27.34a10.8,10.8,0,1,1,10.779-10.8A10.8,10.8,0,0,1,521.5,5097.26Zm0-19.6a8.8,8.8,0,1,0,8.784,8.8A8.8,8.8,0,0,0,521.5,5077.66Zm0,10.57a1.77,1.77,0,1,1,1.764-1.77A1.772,1.772,0,0,1,521.5,5088.23Zm0-2a0.228,0.228,0,0,0-.231.23c0,0.25.462,0.25,0.462,0A0.229,0.229,0,0,0,521.5,5086.23Zm0,1.23a1,1,0,0,1-.705-1.71l4.976-4.99a1,1,0,0,1,1.41,0,1.008,1.008,0,0,1,0,1.42l-4.976,4.99A1.013,1.013,0,0,1,521.5,5087.46Z" transform="translate(-501.031 -5058)"/>
</svg>
