<svg xmlns="http://www.w3.org/2000/svg" width="44" height="39.97" viewBox="0 0 44 39.97">
  <metadata><?xpacket begin="﻿" id="W5M0MpCehiHzreSzNTczkc9d"?>
<x:xmpmeta xmlns:x="adobe:ns:meta/" x:xmptk="Adobe XMP Core 5.6-c142 79.160924, 2017/07/13-01:06:39        ">
   <rdf:RDF xmlns:rdf="http://www.w3.org/1999/02/22-rdf-syntax-ns#">
      <rdf:Description rdf:about=""/>
   </rdf:RDF>
</x:xmpmeta>
                                                                                                    
                                                                                                    
                                                                                                    
                                                                                                    
                                                                                                    
                                                                                                    
                                                                                                    
                                                                                                    
                                                                                                    
                                                                                                    
                                                                                                    
                                                                                                    
                                                                                                    
                                                                                                    
                                                                                                    
                                                                                                    
                                                                                                    
                                                                                                    
                                                                                                    
                                                                                                    
                           
<?xpacket end="w"?></metadata>
<defs>
    <style>
      .cls-1 {
        fill: #d92a21;
        fill-rule: evenodd;
      }
    </style>
  </defs>
  <path id="legal" class="cls-1" d="M1126.6,4461.47h-0.54a1.005,1.005,0,0,1,0-2.01h0.54a1.406,1.406,0,0,0,1.4-1.41v-24.8a1.406,1.406,0,0,0-1.4-1.41h-37.2a1.406,1.406,0,0,0-1.4,1.41v24.8a1.406,1.406,0,0,0,1.4,1.41h18.66a1.005,1.005,0,0,1,0,2.01H1089.4a3.414,3.414,0,0,1-3.4-3.42v-24.8a3.414,3.414,0,0,1,3.4-3.42h37.2a3.414,3.414,0,0,1,3.4,3.42v24.8A3.414,3.414,0,0,1,1126.6,4461.47Zm-9.35,2.82a1.008,1.008,0,0,1-.67-0.26l-1.61-1.47-2.18.08a0.977,0.977,0,0,1-1.03-.87l-0.29-2.17-1.72-1.34a1,1,0,0,1-.23-1.33l1.16-1.85-0.46-2.14a1,1,0,0,1,.67-1.17l2.07-.67,1.01-1.94a1,1,0,0,1,1.27-.46l2.01,0.83,2.02-.83a0.989,0.989,0,0,1,1.26.46l1.01,1.94,2.07,0.67a1.009,1.009,0,0,1,.68,1.17l-0.46,2.14,1.16,1.85a1.011,1.011,0,0,1-.24,1.33l-1.72,1.34-0.29,2.17a0.97,0.97,0,0,1-1.03.87l-2.17-.08-1.62,1.47A1.008,1.008,0,0,1,1117.25,4464.29Zm-1.91-3.76a0.971,0.971,0,0,1,.67.26l1.24,1.13,1.24-1.13a0.953,0.953,0,0,1,.71-0.26l1.68,0.07,0.23-1.68a1.028,1.028,0,0,1,.37-0.66l1.33-1.03-0.89-1.43a1.036,1.036,0,0,1-.14-0.75l0.36-1.65-1.6-.51a1.037,1.037,0,0,1-.58-0.49l-0.78-1.49-1.55.63a0.916,0.916,0,0,1-.76,0l-1.55-.63-0.78,1.49a1,1,0,0,1-.58.49l-1.6.51,0.36,1.65a1.032,1.032,0,0,1-.13.75l-0.9,1.43,1.33,1.03a1.088,1.088,0,0,1,.38.66l0.22,1.68,1.68-.07h0.04Zm5.12,9.24a1.075,1.075,0,0,1-.42-0.1l-2.79-1.28-2.79,1.28a0.971,0.971,0,0,1-.96-0.07,1,1,0,0,1-.45-0.84v-7.17a1,1,0,1,1,2,0v5.6l1.79-.82a1,1,0,0,1,.83,0l1.79,0.82v-5.6a1,1,0,1,1,2,0v7.17a1.009,1.009,0,0,1-.46.84A0.984,0.984,0,0,1,1120.46,4469.77Zm1.4-29.9h-27.45a1.01,1.01,0,0,1,0-2.02h27.45A1.01,1.01,0,0,1,1121.86,4439.87Zm0,6.79h-27.45a1.01,1.01,0,0,1,0-2.02h27.45A1.01,1.01,0,0,1,1121.86,4446.66Zm-15.13,6.79h-12.32a1.01,1.01,0,0,1,0-2.02h12.32A1.01,1.01,0,0,1,1106.73,4453.45Z" transform="translate(-1086 -4429.81)"/>
</svg>
