<svg xmlns="http://www.w3.org/2000/svg" width="44.34" height="31.97" viewBox="0 0 44.34 31.97">
  <metadata><?xpacket begin="﻿" id="W5M0MpCehiHzreSzNTczkc9d"?>
<x:xmpmeta xmlns:x="adobe:ns:meta/" x:xmptk="Adobe XMP Core 5.6-c142 79.160924, 2017/07/13-01:06:39        ">
   <rdf:RDF xmlns:rdf="http://www.w3.org/1999/02/22-rdf-syntax-ns#">
      <rdf:Description rdf:about=""/>
   </rdf:RDF>
</x:xmpmeta>
                                                                                                    
                                                                                                    
                                                                                                    
                                                                                                    
                                                                                                    
                                                                                                    
                                                                                                    
                                                                                                    
                                                                                                    
                                                                                                    
                                                                                                    
                                                                                                    
                                                                                                    
                                                                                                    
                                                                                                    
                                                                                                    
                                                                                                    
                                                                                                    
                                                                                                    
                                                                                                    
                           
<?xpacket end="w"?></metadata>
<defs>
    <style>
      .cls-1 {
        fill: #d92a21;
        fill-rule: evenodd;
      }
    </style>
  </defs>
  <path id="meat" class="cls-1" d="M1100.58,5085.95c-3.78,0-8.3-1.1-11.33-3.77a9.5,9.5,0,0,1-3.31-7.29c0-8.94,5.37-13.86,15.11-13.86,7.97,0,19.47,1.72,25.66,6.59,2.97,2.33,4.22,5.74,3.18,8.69a6.611,6.611,0,0,1-6.56,4.24c-4.63,0-8.42,1.43-12.09,2.82a35.648,35.648,0,0,1-8.61,2.46h0A16.631,16.631,0,0,1,1100.58,5085.95Zm1.93-1.11h0Zm-1.46-21.82c-8.57,0-13.09,4.11-13.09,11.87a7.444,7.444,0,0,0,2.63,5.8c3.11,2.75,8.3,3.56,11.81,3.16h0a33.824,33.824,0,0,0,8.12-2.35c3.84-1.45,7.81-2.95,12.81-2.95a4.6,4.6,0,0,0,4.66-2.9c0.75-2.13-.24-4.67-2.53-6.47C1120.04,5064.93,1109.3,5063.02,1101.05,5063.02Zm-0.47,29.97c-3.78,0-8.3-1.09-11.33-3.77a9.5,9.5,0,0,1-3.31-7.29v-6.8a1.01,1.01,0,0,1,2.02,0v6.8a7.43,7.43,0,0,0,2.63,5.8c3.11,2.75,8.3,3.57,11.81,3.16a34.254,34.254,0,0,0,8.12-2.34c3.84-1.45,7.81-2.95,12.81-2.95a5.007,5.007,0,0,0,3.72-1.4,4.21,4.21,0,0,0,1.17-3.15,0.784,0.784,0,0,1,.02-0.22v-7.34a1.005,1.005,0,0,1,2.01,0v7.52a0.757,0.757,0,0,1-.01.15,6.226,6.226,0,0,1-1.74,4.43,7.111,7.111,0,0,1-5.17,2.01c-4.63,0-8.42,1.43-12.09,2.81a35.673,35.673,0,0,1-8.61,2.47A18.936,18.936,0,0,1,1100.58,5092.99Zm-2.19-16.13a4.213,4.213,0,1,1,4.47-4.2A4.347,4.347,0,0,1,1098.39,5076.86Zm0-6.41a2.222,2.222,0,1,0,2.45,2.21A2.342,2.342,0,0,0,1098.39,5070.45Zm-11.33,5.68a1.01,1.01,0,0,1-.71-0.3,1,1,0,0,1,0-1.41l13.16-13.04a1.008,1.008,0,0,1,1.42,0,0.978,0.978,0,0,1,0,1.41l-13.16,13.04A0.976,0.976,0,0,1,1087.06,5076.13Zm2.93,5.69a1.042,1.042,0,0,1-.71-0.29,1,1,0,0,1,0-1.41l5.91-5.86a1.008,1.008,0,0,1,1.42,0,0.978,0.978,0,0,1,0,1.41l-5.9,5.86A1.048,1.048,0,0,1,1089.99,5081.82Zm10.78-10.68a1.005,1.005,0,0,1-.71-1.71l7.72-7.66a1.02,1.02,0,0,1,1.43,0,1.008,1.008,0,0,1,0,1.42l-7.73,7.65A0.976,0.976,0,0,1,1100.77,5071.14Zm-5.44,13.99a1.024,1.024,0,0,1-.71-0.29,1,1,0,0,1,0-1.41l20.36-20.19a1.008,1.008,0,0,1,1.42,0,1,1,0,0,1,0,1.41l-20.36,20.19A1.007,1.007,0,0,1,1095.33,5085.13Zm8.12,0.55a1.042,1.042,0,0,1-.71-0.29,1.008,1.008,0,0,1,0-1.42l18.72-18.55a1.008,1.008,0,0,1,1.42,0,0.978,0.978,0,0,1,0,1.41l-18.71,18.56A1.048,1.048,0,0,1,1103.45,5085.68Zm12.91-4.2a0.966,0.966,0,0,1-.71-0.29,0.978,0.978,0,0,1,0-1.41l10.99-10.9a1.02,1.02,0,0,1,1.43,0,1,1,0,0,1,0,1.41l-11,10.9A0.982,0.982,0,0,1,1116.36,5081.48Z" transform="translate(-1085.94 -5061.03)"/>
</svg>
