<svg xmlns="http://www.w3.org/2000/svg" width="56" height="46.97" viewBox="0 0 56 46.97">
  <metadata><?xpacket begin="﻿" id="W5M0MpCehiHzreSzNTczkc9d"?>
<x:xmpmeta xmlns:x="adobe:ns:meta/" x:xmptk="Adobe XMP Core 5.6-c142 79.160924, 2017/07/13-01:06:39        ">
   <rdf:RDF xmlns:rdf="http://www.w3.org/1999/02/22-rdf-syntax-ns#">
      <rdf:Description rdf:about=""/>
   </rdf:RDF>
</x:xmpmeta>
                                                                                                    
                                                                                                    
                                                                                                    
                                                                                                    
                                                                                                    
                                                                                                    
                                                                                                    
                                                                                                    
                                                                                                    
                                                                                                    
                                                                                                    
                                                                                                    
                                                                                                    
                                                                                                    
                                                                                                    
                                                                                                    
                                                                                                    
                                                                                                    
                                                                                                    
                                                                                                    
                           
<?xpacket end="w"?></metadata>
<defs>
    <style>
      .cls-1 {
        fill: #d92a21;
        fill-rule: evenodd;
      }
    </style>
  </defs>
  <path id="obratnaja" class="cls-1" d="M1095.32,4790.8a1,1,0,0,1-.47-0.12,1.031,1.031,0,0,1-.53-0.89v-8.56a15.376,15.376,0,0,1-8.32-14.14c0-9.75,8.87-17.1,20.64-17.1s20.63,7.35,20.63,17.1-8.87,17.11-20.63,17.11c-0.35,0-.7-0.02-1.04-0.04l-9.73,6.47A0.967,0.967,0,0,1,1095.32,4790.8Zm11.32-38.8c-10.63,0-18.64,6.49-18.64,15.09a13.35,13.35,0,0,0,7.77,12.62,1,1,0,0,1,.55.9v7.31l8.45-5.62a0.96,0.96,0,0,1,.6-0.17l0.25,0.02c0.34,0.01.67,0.03,1.02,0.03,10.62,0,18.63-6.49,18.63-15.09S1117.26,4752,1106.64,4752Zm9.09,16.94a1.64,1.64,0,1,1,1.63-1.64A1.639,1.639,0,0,1,1115.73,4768.94Zm0-2.02a0.375,0.375,0,1,0,.37.38A0.378,0.378,0,0,0,1115.73,4766.92Zm-9.09,2.02a1.64,1.64,0,1,1,1.63-1.64A1.639,1.639,0,0,1,1106.64,4768.94Zm0-2.02a0.375,0.375,0,0,0,0,.75A0.375,0.375,0,0,0,1106.64,4766.92Zm-9.1,2.02a1.64,1.64,0,1,1,1.63-1.64A1.645,1.645,0,0,1,1097.54,4768.94Zm0-2.02a0.375,0.375,0,0,0,0,.75A0.375,0.375,0,0,0,1097.54,4766.92Zm36.68,10.51a0.991,0.991,0,0,1-.55-0.17l-8.15-5.42a1,1,0,0,1,1.11-1.67l6.59,4.38v-5.6a0.99,0.99,0,0,1,.56-0.9,10.708,10.708,0,0,0,6.22-10.12c0-6.9-6.45-12.11-15-12.11-5.69,0-10.62,2.31-13.19,6.17a0.981,0.981,0,0,1-1.38.28,1.011,1.011,0,0,1-.28-1.4c2.94-4.42,8.49-7.06,14.85-7.06,9.69,0,17,6.07,17,14.12a12.687,12.687,0,0,1-6.78,11.63v6.86A1.007,1.007,0,0,1,1134.22,4777.43Z" transform="translate(-1086 -4743.81)"/>
</svg>
