<svg xmlns="http://www.w3.org/2000/svg" width="45.031" height="38" viewBox="0 0 45.031 38">
  <metadata><?xpacket begin="﻿" id="W5M0MpCehiHzreSzNTczkc9d"?>
<x:xmpmeta xmlns:x="adobe:ns:meta/" x:xmptk="Adobe XMP Core 5.6-c142 79.160924, 2017/07/13-01:06:39        ">
   <rdf:RDF xmlns:rdf="http://www.w3.org/1999/02/22-rdf-syntax-ns#">
      <rdf:Description rdf:about=""/>
   </rdf:RDF>
</x:xmpmeta>
                                                                                                    
                                                                                                    
                                                                                                    
                                                                                                    
                                                                                                    
                                                                                                    
                                                                                                    
                                                                                                    
                                                                                                    
                                                                                                    
                                                                                                    
                                                                                                    
                                                                                                    
                                                                                                    
                                                                                                    
                                                                                                    
                                                                                                    
                                                                                                    
                                                                                                    
                                                                                                    
                           
<?xpacket end="w"?></metadata>
<defs>
    <style>
      .cls-1 {
        fill: #d92a21;
        fill-rule: evenodd;
      }
    </style>
  </defs>
  <path id="reciept" class="cls-1" d="M536.68,4781.99H510.235a1,1,0,0,1-.992-1v-17.32a9.906,9.906,0,0,1,1.523-19.68,9.635,9.635,0,0,1,6.345,2.36,9.715,9.715,0,0,1,12.694,0,9.636,9.636,0,0,1,6.346-2.36,9.906,9.906,0,0,1,1.522,19.68v17.32A1,1,0,0,1,536.68,4781.99Zm-25.452-2h24.46v-17.22a1,1,0,0,1,.933-1,7.894,7.894,0,0,0-.47-15.77,7.729,7.729,0,0,0-5.632,2.42,1.019,1.019,0,0,1-1.429,0,7.765,7.765,0,0,0-11.265,0,1,1,0,0,1-.714.3h0a1,1,0,0,1-.714-0.3,7.73,7.73,0,0,0-5.631-2.42,7.894,7.894,0,0,0-.471,15.77,1,1,0,0,1,.933,1v17.22Z" transform="translate(-500.938 -4744)"/>
</svg>
