<svg xmlns="http://www.w3.org/2000/svg" width="120.91" height="24.78"><path d="M0 21.5v2.89h10.1V21.5l-2.14-.82 3.8-4.89 3.74 5.03-1.56.68v2.89h10.54V21.5l-2.38-.82-6.63-8.6 6.25-7.92 2.25-.68V.42l-9.79.17v2.89l1.83.72-3.33 4.52-3.5-4.66 1.7-.58V.42L.68.59v2.89l1.97.65 6.33 8.23-6.87 8.29zm24.99 0v2.89h10.27V21.5l-2.65-.95.85-2.45H41l.82 2.48-2.55.92v2.89h10.81V21.5l-2.38-.95L40.39.42l-5.44.1-7.48 20.03zm14.89-7.04h-5.23l2.68-8.05zm26.83-9.65l.78 3.26h3.33l.17-6.46a23.2 23.2 0 0 0-7.92-1.6c-6.97 0-11.46 4.76-11.46 12.75 0 7.89 3.98 12.04 10.88 12.04a13.42 13.42 0 0 0 8.91-3.71l-1.87-3.06a12.1 12.1 0 0 1-6.46 2.38c-3.57 0-5.78-2.31-5.78-7.82 0-5.67 2.04-8.33 5.61-8.33a12.888 12.888 0 0 1 3.81.55zm22.67 0l.79 3.26h3.33l.17-6.46a23.2 23.2 0 0 0-7.92-1.6c-6.97 0-11.46 4.76-11.46 12.75 0 7.89 3.98 12.04 10.88 12.04a13.42 13.42 0 0 0 8.91-3.71l-1.87-3.06a12.1 12.1 0 0 1-6.46 2.38c-3.57 0-5.78-2.31-5.78-7.82 0-5.67 2.04-8.33 5.61-8.33a12.775 12.775 0 0 1 3.8.55zm6.91 16.69v2.89h10.37V21.5l-2.55-1.02V4.5h8.97v15.98l-2.55 1.02v2.89h10.37V21.5l-2.55-1.02V4.5l2.55-1.02V.42h-16.79l-7.82.17v2.89l2.55 1.02v15.98z" fill="#d92a21" fill-rule="evenodd"/></svg>